# xmcd
#
# Track frame offsets: 
#        150
#        16330
#        28986
#        41180
#        61264
#        75094
#        91812
#        109268
#        128656
#        148245
#        165998
#        184459
#        201763
#        220496
#        231891
#
# Disc length: 3325 seconds
#
# Revision: 5
# Processed by: cddbd v1.5.2PL0 Copyright (c) Steve Scherf et al.
# Submitted via: ExactAudioCopy v1.0b3
#
DISCID=cf0cfb0f
DTITLE=John Pizzarelli - Knowing You
DYEAR=2005
DGENRE=Jazz
TTITLE0=Coffee, Black
TTITLE1=New Sun In The Sky
TTITLE2=Ain't That A Kick In The Head
TTITLE3=The Shadow Of Your Smile
TTITLE4=Pick Yourself Up
TTITLE5=Knowing You
TTITLE6=God Only Knows
TTITLE7=Quality Time
TTITLE8=Eastwood Lane
TTITLE9=I Just Found Out About Love
TTITLE10=Say It (Over and Over Again)
TTITLE11=That Face
TTITLE12=How Long Has This Been Going On?
TTITLE13=The First Hint Of Autumn
TTITLE14=If It's The Last Thing I Do
EXTD=YEAR: 2005
EXTT0=
EXTT1=
EXTT2=
EXTT3=
EXTT4=
EXTT5=
EXTT6=
EXTT7=
EXTT8=
EXTT9=
EXTT10=
EXTT11=
EXTT12=
EXTT13=
EXTT14=
PLAYORDER=
